<?xml version="1.0" encoding="UTF-8" standalone="no"?>
<!DOCTYPE svg PUBLIC "-//W3C//DTD SVG 1.1//EN"
 "http://www.w3.org/Graphics/SVG/1.1/DTD/svg11.dtd">
<!-- Generated by graphviz version 2.40.1 (20161225.0304)
 -->
<!-- Title: models_diagram Pages: 1 -->
<svg width="225pt" height="314pt"
 viewBox="0.00 0.00 225.00 314.00" xmlns="http://www.w3.org/2000/svg" xmlns:xlink="http://www.w3.org/1999/xlink">
<g id="graph0" class="graph" transform="scale(1 1) rotate(0) translate(36 278)">
<title>models_diagram</title>
<polygon fill="#ffffff" stroke="transparent" points="-36,36 -36,-278 189,-278 189,36 -36,36"/>
<!-- user_results -->
<g id="node1" class="node">
<title>user_results</title>
<polygon fill="#add8e6" stroke="transparent" points=".5,-220 .5,-242 153.5,-242 153.5,-220 .5,-220"/>
<polygon fill="none" stroke="#000000" points=".5,-220 .5,-242 153.5,-242 153.5,-220 .5,-220"/>
<text text-anchor="start" x="53.1195" y="-229" font-family="Times,serif" font-weight="bold" font-size="10.00" fill="#000000">user_results</text>
<polygon fill="none" stroke="#000000" points=".5,-198 .5,-220 153.5,-220 153.5,-198 .5,-198"/>
<text text-anchor="start" x="5.5" y="-207" font-family="Times,serif" text-decoration="underline" font-size="10.00" fill="#000000">user_id</text>
<text text-anchor="start" x="34.936" y="-207" font-family="Times,serif" font-size="10.00" fill="#000000">: STRING</text>
<polygon fill="none" stroke="#000000" points=".5,-176 .5,-198 153.5,-198 153.5,-176 .5,-176"/>
<text text-anchor="start" x="5.5" y="-184" font-family="Times,serif" font-size="10.00" fill="#000000">prolific_id: STRING</text>
<polygon fill="none" stroke="#000000" points=".5,-154 .5,-176 153.5,-176 153.5,-154 .5,-154"/>
<text text-anchor="start" x="5.5" y="-162" font-family="Times,serif" font-size="10.00" fill="#000000">genres: ARRAY</text>
<polygon fill="none" stroke="#000000" points=".5,-132 .5,-154 153.5,-154 153.5,-132 .5,-132"/>
<text text-anchor="start" x="5.5" y="-140" font-family="Times,serif" font-size="10.00" fill="#000000">play_instrument: ENUM</text>
<polygon fill="none" stroke="#000000" points=".5,-110 .5,-132 153.5,-132 153.5,-110 .5,-110"/>
<text text-anchor="start" x="5.5" y="-118" font-family="Times,serif" font-size="10.00" fill="#000000">instruments_played: ARRAY</text>
<polygon fill="none" stroke="#000000" points=".5,-88 .5,-110 153.5,-110 153.5,-88 .5,-88"/>
<text text-anchor="start" x="5.5" y="-96" font-family="Times,serif" font-size="10.00" fill="#000000">instruments_played_years: ENUM</text>
<polygon fill="none" stroke="#000000" points=".5,-66 .5,-88 153.5,-88 153.5,-66 .5,-66"/>
<text text-anchor="start" x="5.5" y="-74" font-family="Times,serif" font-size="10.00" fill="#000000">formal_education: ENUM</text>
<polygon fill="none" stroke="#000000" points=".5,-44 .5,-66 153.5,-66 153.5,-44 .5,-44"/>
<text text-anchor="start" x="5.5" y="-52" font-family="Times,serif" font-size="10.00" fill="#000000">compose_music: ENUM</text>
<polygon fill="none" stroke="#000000" points=".5,-22 .5,-44 153.5,-44 153.5,-22 .5,-22"/>
<text text-anchor="start" x="5.2045" y="-30" font-family="Times,serif" font-size="10.00" fill="#000000">hours_listening_weekly: NUMBER</text>
<polygon fill="none" stroke="#000000" points=".5,0 .5,-22 153.5,-22 153.5,0 .5,0"/>
<text text-anchor="start" x="5.5" y="-8" font-family="Times,serif" font-size="10.00" fill="#000000">intents: JSON</text>
</g>
</g>
</svg>
